HIERARCHY
ROOT Hips
{
    OFFSET 0.000000 0.000000 0.000000
    CHANNELS 6 Xposition Yposition Zposition Zrotation Xrotation Yrotation
    JOINT Spine
    {
        OFFSET -0.000000 7.897928 0.000000
        CHANNELS 3 Zrotation Xrotation Yrotation
        JOINT Spine1
        {
            OFFSET -0.000000 22.881742 0.000000
            CHANNELS 3 Zrotation Xrotation Yrotation
            JOINT Neck
            {
                OFFSET -0.000000 22.787771 2.071616
                CHANNELS 3 Zrotation Xrotation Yrotation
                JOINT Head
                {
                    OFFSET -0.000000 13.484266 -1.926324
                    CHANNELS 3 Zrotation Xrotation Yrotation
                    End Site
                    {
                        OFFSET -0.000000 24.079046 0.000000
                    }
                }
            }
            JOINT LeftShoulder
            {
                OFFSET 3.854963 21.096247 -0.110468
                CHANNELS 3 Zrotation Xrotation Yrotation
                JOINT LeftArm
                {
                    OFFSET 10.572188 0.000000 0.000000
                    CHANNELS 3 Zrotation Xrotation Yrotation
                    JOINT LeftForeArm
                    {
                        OFFSET 34.932854 0.000000 0.000000
                        CHANNELS 3 Zrotation Xrotation Yrotation
                        JOINT LeftHand
                        {
                            OFFSET 23.279285 0.000000 0.000000
                            CHANNELS 3 Zrotation Xrotation Yrotation
                            End Site
                            {
                                OFFSET 14.447429 0.000000 0.000000
                            }
                        }
                    }
                }
            }
            JOINT RightShoulder
            {
                OFFSET -3.825334 21.096247 -0.110468
                CHANNELS 3 Zrotation Xrotation Yrotation
                JOINT RightArm
                {
                    OFFSET -10.572188 0.000000 0.000000
                    CHANNELS 3 Zrotation Xrotation Yrotation
                    JOINT RightForeArm
                    {
                        OFFSET -34.932854 0.000000 0.000000
                        CHANNELS 3 Zrotation Xrotation Yrotation
                        JOINT RightHand
                        {
                            OFFSET -23.279285 0.000000 0.000000
                            CHANNELS 3 Zrotation Xrotation Yrotation
                            End Site
                            {
                                OFFSET -14.447429 0.000000 0.000000
                            }
                        }
                    }
                }
            }
        }
    }
    JOINT LeftUpLeg
    {
        OFFSET 9.631618 0.000000 0.000000
        CHANNELS 3 Zrotation Xrotation Yrotation
        JOINT LeftLeg
        {
            OFFSET -0.000000 -35.385456 0.000000
            CHANNELS 3 Zrotation Xrotation Yrotation
            JOINT LeftFoot
            {
                OFFSET -0.000000 -43.284000 0.000000
                CHANNELS 3 Zrotation Xrotation Yrotation
                JOINT LeftToeBase
                {
                    OFFSET -0.000000 -6.260552 14.447429
                    CHANNELS 3 Zrotation Xrotation Yrotation
                    End Site
                    {
                        OFFSET -0.000000 0.000000 3.852648
                    }
                }
            }
        }
    }
    JOINT RightUpLeg
    {
        OFFSET -9.631618 0.000000 0.000000
        CHANNELS 3 Zrotation Xrotation Yrotation
        JOINT RightLeg
        {
            OFFSET -0.000000 -35.385456 0.000000
            CHANNELS 3 Zrotation Xrotation Yrotation
            JOINT RightFoot
            {
                OFFSET -0.000000 -43.284000 0.000000
                CHANNELS 3 Zrotation Xrotation Yrotation
                JOINT RightToeBase
                {
                    OFFSET -0.000000 -6.260552 14.447429
                    CHANNELS 3 Zrotation Xrotation Yrotation
                    End Site
                    {
                        OFFSET -0.000000 0.000000 3.852648
                    }
                }
            }
        }
    }
}
MOTION
Frames:    12
Frame Time:    0.008333
50.689751    84.720444    18.798521    -8.200805    1.094648    77.591331    -0.215010    3.348227    -5.219070    -1.884526    3.166513    -5.173269    -10.281745    20.324499    -1.122231    20.249214    -19.401255    4.693659    23.060713    -3.797330    3.017585    -11.155871    -0.810106    -13.210471    62.381947    -25.549091    -42.499828    50.288582    7.723351    14.171605    -2.488153    13.900544    8.658401    48.470364    51.058777    21.623590    -3.427433    -19.819412    43.368465    -6.914035    -18.198397    -5.826398    14.544997    -19.183130    9.022311    -13.891335    31.303732    6.753327    -0.572225    -18.741673    18.337669    0.000000    0.000000    0.000000    -10.481853    -29.119455    0.105541    9.708446    33.337852    -4.642148    3.336545    -11.050458    -4.198812    0.000000    0.000000    0.000000    
50.667645    84.714737    18.808266    -8.211589    1.083117    77.640602    -0.218034    3.359996    -5.233391    -1.889277    3.165776    -5.187590    -10.350502    20.343071    -1.135743    20.271124    -19.328423    4.669431    23.174175    -3.832082    2.986010    -11.157631    -1.147899    -13.371731    61.997143    -25.419724    -42.357620    50.124146    8.042591    15.269685    -2.481188    13.913306    8.699945    48.452179    51.062843    21.598648    -3.455564    -19.827456    43.451591    -6.967438    -18.190783    -5.822568    14.563972    -19.227516    9.042061    -13.871468    31.327200    6.698729    -0.575330    -18.743681    18.328896    0.000000    0.000000    0.000000    -10.480737    -29.131695    0.107229    9.754466    33.364349    -4.758318    3.329510    -11.082483    -4.191846    0.000000    0.000000    0.000000    
50.645794    84.710381    18.814922    -8.222561    1.078024    77.672791    -0.208492    3.355472    -5.257152    -1.913344    3.190600    -5.209982    -10.493542    20.301237    -1.140228    20.387182    -19.186310    4.675455    23.270359    -3.870291    3.004633    -11.188544    -1.589270    -13.555013    61.339630    -25.533314    -42.207932    50.259808    7.813257    15.987741    -2.465188    13.904650    8.727230    48.383339    51.053257    21.643543    -3.440883    -19.813515    43.505451    -6.991518    -18.180565    -5.801135    14.573163    -19.266088    9.048455    -13.861091    31.336601    6.710360    -0.577194    -18.733135    18.294588    0.000000    0.000000    0.000000    -10.492630    -29.163565    0.128008    9.790284    33.351952    -4.738399    3.325482    -11.047518    -4.235743    0.000000    0.000000    0.000000    
50.623547    84.707024    18.823919    -8.227631    1.065424    77.702965    -0.217636    3.354032    -5.258868    -1.908367    3.232069    -5.211414    -10.569983    20.272263    -1.130614    20.440554    -19.091387    4.685761    23.375580    -3.946817    2.975219    -11.384521    -2.719083    -13.857379    59.849102    -25.872446    -42.684898    49.055279    7.111269    16.747246    -2.449104    13.874798    8.752846    48.371510    51.049835    21.610010    -3.436742    -19.849651    43.560219    -7.000723    -18.218218    -5.768730    14.593181    -19.295404    9.061602    -13.848223    31.347475    6.682117    -0.576598    -18.724464    18.284241    0.000000    0.000000    0.000000    -10.475476    -29.174690    0.090149    9.783954    33.392841    -4.801921    3.309179    -11.074841    -4.205490    0.000000    0.000000    0.000000    
50.598919    84.702560    18.830458    -8.237989    1.055066    77.729485    -0.202061    3.358624    -5.287440    -1.930869    3.241253    -5.238751    -10.601972    20.361423    -1.091979    20.371140    -19.170135    4.707432    23.576929    -4.139826    3.020133    -11.719594    -3.457532    -14.090791    58.561275    -26.346272    -42.993099    48.413780    6.669497    18.234434    -2.516656    13.806039    8.864972    48.524368    51.026913    21.519693    -3.377136    -19.878717    43.543762    -7.156668    -18.266293    -5.718107    14.613358    -19.330585    9.083077    -13.837809    31.366516    6.634501    -0.552552    -18.719475    18.295036    0.000000    0.000000    0.000000    -10.475905    -29.197519    0.083679    9.809175    33.401585    -4.826337    3.316142    -11.069576    -4.216051    0.000000    0.000000    0.000000    
50.571930    84.708321    18.832796    -8.248768    1.079365    77.759888    -0.237857    3.367675    -5.305086    -1.924292    3.242161    -5.257635    -10.608462    20.431660    -1.086625    20.269434    -19.222364    4.682665    23.651159    -4.233805    3.002892    -11.954737    -4.467698    -14.310168    57.183372    -26.715309    -43.167652    48.114769    6.178265    19.544931    -2.530824    13.800774    8.967094    48.577423    50.958351    21.452230    -3.374390    -19.918297    43.557728    -7.178826    -18.308443    -5.673911    14.580872    -19.376364    9.073845    -13.811173    31.362333    6.638643    -0.606140    -18.686857    18.264381    0.000000    0.000000    0.000000    -10.514482    -29.215254    0.080786    9.838659    33.382523    -4.865881    3.291809    -11.047836    -4.219841    0.000000    0.000000    0.000000    
50.541451    84.700760    18.843855    -8.269852    1.045057    77.794182    -0.200621    3.384007    -5.337154    -1.942809    3.221923    -5.288455    -10.668914    20.470823    -1.025821    20.270390    -19.198698    4.735695    23.716551    -4.352093    2.999300    -12.155052    -5.449541    -14.506476    55.468449    -27.362617    -43.668617    47.287273    5.548703    21.435436    -2.494155    13.825641    9.027843    48.491646    50.902489    21.509853    -3.344175    -19.907211    43.554398    -7.439172    -18.290663    -5.769163    14.630009    -19.427071    9.089000    -13.802508    31.387880    6.576138    -0.564526    -18.695004    18.299791    0.000000    0.000000    0.000000    -10.487289    -29.230022    0.100426    9.882944    33.361198    -4.903850    3.284916    -11.056441    -4.260308    0.000000    0.000000    0.000000    
50.512154    84.703171    18.846834    -8.283195    1.041041    77.811363    -0.204746    3.396485    -5.352834    -1.941148    3.231611    -5.304159    -10.759560    20.472256    -1.052760    20.278988    -19.121653    4.693312    23.785347    -4.512611    3.012758    -12.404892    -6.323633    -14.708969    53.762405    -28.138618    -43.994453    46.243629    4.642867    23.466183    -2.476747    13.809515    9.056253    48.425858    50.885597    21.558096    -3.431545    -19.919615    43.474205    -7.147291    -18.292105    -5.678142    14.637074    -19.462675    9.092746    -13.785625    31.387266    6.557458    -0.573107    -18.676628    18.293173    0.000000    0.000000    0.000000    -10.481583    -29.244785    0.119353    9.896576    33.334892    -4.937103    3.279958    -11.037560    -4.257900    0.000000    0.000000    0.000000    
50.485264    84.704765    18.854406    -8.291849    1.034177    77.832581    -0.204787    3.420337    -5.371453    -1.963186    3.211632    -5.322542    -10.697964    20.590103    -1.019218    20.131378    -19.235886    4.691761    23.841215    -4.625158    3.000275    -12.661502    -7.245853    -14.916998    52.116009    -29.017403    -44.172482    45.415760    3.781575    25.955114    -2.410624    13.812557    9.091925    48.349007    50.870518    21.584314    -3.450408    -19.938684    43.415569    -7.144152    -18.307341    -5.660995    14.648338    -19.492771    9.089396    -13.778987    31.388393    6.547880    -0.585761    -18.664726    18.290215    0.000000    0.000000    0.000000    -10.462744    -29.227146    0.186387    9.906421    33.232952    -4.968700    3.280164    -11.009863    -4.265273    0.000000    0.000000    0.000000    
50.457691    84.707016    18.859331    -8.302433    1.030840    77.842735    -0.205206    3.449417    -5.391472    -1.983907    3.185149    -5.342505    -10.716495    20.675207    -0.986590    20.109318    -19.299795    4.720010    23.894379    -4.737493    2.994071    -12.887513    -8.166796    -15.058494    50.079792    -30.150061    -44.758350    45.110924    2.685016    28.231634    -2.359021    13.827657    9.126423    48.256783    50.853928    21.644251    -3.511887    -19.944105    43.364552    -7.210752    -18.282011    -5.763405    14.654778    -19.518343    9.087545    -13.767591    31.372581    6.537498    -0.586510    -18.649580    18.295717    0.000000    0.000000    0.000000    -10.441303    -29.258165    0.096079    9.831474    33.262974    -4.864816    3.270947    -10.995585    -4.282319    0.000000    0.000000    0.000000    
50.429047    84.710655    18.862129    -8.311996    1.031036    77.848114    -0.182261    3.488576    -5.417376    -2.059705    3.130419    -5.366668    -10.728589    20.814535    -0.921005    20.130329    -19.420609    4.800370    23.959757    -4.812634    2.972386    -13.112677    -9.197624    -15.210865    47.785637    -31.503448    -45.575069    45.132122    1.459137    30.645906    -2.275368    13.843823    9.188778    48.186630    50.840538    21.675966    -3.552984    -19.956776    43.234760    -7.102882    -18.298689    -5.597579    14.663991    -19.547932    9.130597    -13.748019    31.391701    6.364834    -0.572018    -18.648499    18.429726    0.000000    0.000000    0.000000    -10.429908    -29.260132    0.102707    9.824099    33.221924    -4.852264    3.281434    -10.989091    -4.308215    0.000000    0.000000    0.000000    
50.400269    84.714111    18.866039    -8.319180    1.033941    77.848351    -0.176276    3.520604    -5.440501    -2.118421    3.113488    -5.388358    -10.700240    20.866795    -0.878800    20.096338    -19.475502    4.838706    24.053978    -4.896381    2.976871    -13.318107    -9.831188    -15.384036    46.038094    -32.761902    -45.879478    45.135174    0.347189    33.098213    -2.215806    13.844418    9.229811    48.111244    50.826698    21.732351    -3.589461    -19.960093    43.157990    -6.916953    -18.303020    -5.538353    14.665761    -19.556055    9.066475    -13.778241    31.337347    6.437693    -0.547030    -18.616772    18.430107    0.000000    0.000000    0.000000    -10.411405    -29.265078    0.130093    9.835570    33.212914    -4.933991    3.254472    -11.010772    -4.303946    0.000000    0.000000    0.000000    
